External Loads File
version=1
nRows=85
nColumns=13
Range=5.000000e-03-10 seconds
endheader
time 	forceRightX 	forceRightY 	forceRightZ 	pointRightX 	pointRightY 	pointRightZ 	forceLeftX 	forceLeftY 	forceLeftZ 	pointLeftX 	pointLeftY 	pointLeftZ 		
2.505000 13.155591 -47.522112 -0.000000 0.065939 0.292055 -0.118499 -302.569370 666.964497 -0.000000 0.334095 0.316830 -0.364363
2.510000 5.597769 -44.261523 -0.000000 0.066911 0.302138 -0.119547 -292.322638 688.444643 -0.000000 0.333222 0.305967 -0.364244
2.515000 -1.475615 -40.710373 -0.000000 0.069399 0.312348 -0.119688 -277.918896 704.686508 -0.000000 0.331910 0.295153 -0.364161
2.520000 -7.809923 -37.273208 -0.000000 0.071901 0.322507 -0.119786 -260.348619 716.021838 -0.000000 0.330047 0.284480 -0.364073
2.525000 -13.385038 -34.454913 -0.000000 0.075136 0.332701 -0.120310 -238.917763 723.509736 -0.000000 0.327687 0.273660 -0.364165
2.530000 -18.221368 -32.820148 -0.000000 0.078858 0.343029 -0.120677 -215.385325 727.304846 -0.000000 0.324961 0.263231 -0.364195
2.535000 -22.583194 -32.847083 -0.000000 0.082955 0.353401 -0.121032 -189.925908 728.043609 -0.000000 0.321362 0.253143 -0.364270
2.540000 -26.885053 -34.785661 -0.000000 0.087669 0.363818 -0.121329 -162.069277 726.382917 -0.000000 0.317324 0.243014 -0.364233
2.545000 -31.484119 -38.660865 -0.000000 0.092699 0.374531 -0.121824 -133.387241 722.447028 -0.000000 0.312782 0.233368 -0.364240
2.550000 -36.653512 -44.213349 -0.000000 0.098130 0.384591 -0.122481 -105.135082 716.541425 -0.000000 0.307816 0.223575 -0.364237
2.555000 -44.425221 -49.291525 -0.000000 0.104115 0.394719 -0.123051 -50.783639 711.532848 -0.000000 0.302339 0.200813 -0.364128
2.560000 -51.832478 -55.773653 -0.000000 0.111202 0.404430 -0.122987 -17.036548 702.159014 -0.000000 0.296308 0.186883 -0.364028
2.565000 -58.742764 -63.109809 -0.000000 0.117901 0.413971 -0.123743 3.293140 691.519354 -0.000000 0.289854 0.179367 -0.363858
2.570000 -65.186211 -70.552619 -0.000000 0.125033 0.422855 -0.124408 17.684514 680.754264 -0.000000 0.282925 0.175847 -0.363694
2.575000 -71.069309 -77.577092 -0.000000 0.132060 0.431114 -0.125616 29.704492 670.119437 -0.000000 0.275620 0.173903 -0.363540
2.580000 -77.018913 -83.180253 -0.000000 0.141012 0.439026 -0.124780 46.753384 659.155599 -0.000000 0.267955 0.171118 -0.363373
2.585000 -84.916320 -85.259800 -0.000000 0.148505 0.446020 -0.125941 82.919650 645.520325 -0.000000 0.250349 0.165074 -0.351752
2.590000 -87.015456 -91.187918 -0.000000 0.157048 0.452564 -0.126453 80.955882 635.251022 -0.000000 0.251298 0.159656 -0.363238
2.595000 -90.315018 -94.151118 -0.000000 0.165725 0.458353 -0.127081 94.094818 621.872290 -0.000000 0.242511 0.160517 -0.363044
2.600000 -93.229052 -95.648954 -0.000000 0.174700 0.463454 -0.127380 110.156131 605.948335 -0.000000 0.233512 0.156516 -0.362750
2.605000 -95.094363 -96.219491 -0.000000 0.183718 0.467865 -0.127807 125.033555 587.393797 -0.000000 0.224269 0.153286 -0.362366
2.610000 -95.944878 -95.695764 -0.000000 0.193000 0.471709 -0.128063 139.328002 565.522503 -0.000000 0.214753 0.150555 -0.362230
2.615000 -95.642787 -94.076561 -0.000000 0.202372 0.474677 -0.128261 152.489371 539.904028 -0.000000 0.205023 0.148569 -0.362027
2.620000 -94.046075 -91.407312 -0.000000 0.211669 0.476910 -0.128340 163.842101 510.159740 -0.000000 0.195301 0.147185 -0.361802
2.625000 -90.743002 -88.098857 -0.000000 0.220943 0.478623 -0.128306 170.953317 476.626145 -0.000000 0.187253 0.146497 -0.358642
2.630000 -87.095006 -82.806233 -0.000000 0.230090 0.479488 -0.128107 180.446639 436.488645 -0.000000 0.175862 0.146574 -0.361191
2.635000 -81.931652 -76.849435 -0.000000 0.239139 0.479631 -0.128280 184.635131 392.368206 -0.000000 0.166321 0.147164 -0.361022
2.640000 -75.934677 -69.663779 -0.000000 0.247819 0.479202 -0.128128 185.182231 343.861135 -0.000000 0.156980 0.148682 -0.360870
2.645000 -69.532574 -60.949948 -0.000000 0.256198 0.478141 -0.127940 181.654366 291.753879 -0.000000 0.147987 0.150651 -0.360662
2.650000 -63.329367 -50.128030 -0.000000 0.264305 0.476196 -0.127813 174.158573 237.064915 -0.000000 0.139383 0.153465 -0.360435
2.655000 -57.875179 -36.496822 -0.000000 0.272062 0.473651 -0.127598 162.749427 181.457783 -0.000000 0.131118 0.156717 -0.360129
2.660000 -53.724087 -19.122775 -0.000000 0.279307 0.470237 -0.127094 148.093540 126.727774 -0.000000 0.123226 0.160727 -0.359800
2.665000 -51.296037 2.986070 -0.000000 0.286004 0.466407 -0.126595 131.021225 74.837570 -0.000000 0.115606 0.165270 -0.359435
2.670000 -50.808861 30.906716 -0.000000 0.292138 0.461548 -0.125972 112.606632 27.378667 -0.000000 0.108109 0.170346 -0.359333
2.675000 -52.164069 65.467020 -0.000000 0.297916 0.455771 -0.125304 93.661602 -14.028033 -0.000000 0.101102 0.176059 -0.358774
2.680000 -55.166015 107.043223 -0.000000 0.302958 0.449170 -0.124515 74.964574 -47.968179 -0.000000 0.094540 0.182201 -0.358110
2.685000 -59.851590 155.378799 -0.000000 0.307181 0.442425 -0.123589 57.372136 -73.515971 -0.000000 0.088527 0.188757 -0.357518
2.690000 -65.893669 209.778871 -0.000000 0.311145 0.434811 -0.122291 41.440288 -90.624239 -0.000000 0.082991 0.195511 -0.357025
2.695000 -73.278370 268.793366 -0.000000 0.314821 0.426796 -0.121512 27.784892 -99.729501 -0.000000 0.077768 0.202729 -0.356629
2.700000 -81.777819 330.555387 -0.000000 0.318656 0.418648 -0.121319 16.896615 -101.959648 -0.000000 0.072797 0.210528 -0.356459
2.705000 -91.351789 392.820000 -0.000000 0.321945 0.409923 -0.121082 9.239756 -98.882454 -0.000000 0.068081 0.218779 -0.356622
2.710000 -100.515671 453.497588 -0.000000 0.325192 0.400415 -0.120702 4.679824 -92.279722 -0.000000 0.063813 0.227712 -0.356429
2.715000 -108.554928 510.294098 -0.000000 0.328499 0.390511 -0.120706 2.996090 -83.762396 -0.000000 0.059978 0.237101 -0.356572
2.720000 -113.912241 561.293627 -0.000000 0.331802 0.380107 -0.120632 3.506562 -74.548133 -0.000000 0.056645 0.247010 -0.356295
2.725000 -117.630036 604.444407 -0.000000 0.334167 0.369666 -0.120795 5.719039 -65.259665 -0.000000 0.053822 0.256983 -0.356275
2.730000 -118.720096 638.731013 -0.000000 0.335952 0.359289 -0.120721 8.811813 -55.981175 -0.000000 0.051606 0.267193 -0.356321
2.735000 -115.018711 664.103727 -0.000000 0.338802 0.348400 -0.120313 12.097766 -46.521469 -0.000000 0.049796 0.277519 -0.356075
2.740000 -109.604428 680.362333 -0.000000 0.339749 0.337509 -0.119785 15.566364 -36.584662 -0.000000 0.048656 0.288028 -0.355948
2.745000 -102.009898 688.580596 -0.000000 0.339525 0.326644 -0.119958 19.171688 -26.071341 -0.000000 0.048020 0.298764 -0.355909
2.750000 -92.659867 690.009080 -0.000000 0.339756 0.315878 -0.119877 23.142463 -15.090377 -0.000000 0.047908 0.309609 -0.355918
2.755000 -81.963851 686.028104 -0.000000 0.339657 0.305106 -0.119748 27.695865 -3.965900 -0.000000 0.048295 0.320538 -0.355932
2.760000 -70.620369 678.031081 -0.000000 0.339162 0.294408 -0.119829 32.837637 6.859900 -0.000000 0.049308 0.331415 -0.355975
2.765000 -59.262260 667.486158 -0.000000 0.337642 0.284000 -0.119983 38.319986 16.909506 -0.000000 0.050832 0.342142 -0.355666
2.770000 -45.757904 656.060513 -0.000000 0.335014 0.273266 -0.118165 43.851259 25.513071 -0.000000 0.053220 0.352882 -0.356115
2.775000 -33.152416 644.774665 -0.000000 0.332869 0.263003 -0.119709 48.929203 32.289140 -0.000000 0.056212 0.363631 -0.356066
2.780000 -19.277829 634.700975 -0.000000 0.329675 0.252396 -0.119557 53.183440 36.529523 -0.000000 0.060141 0.373965 -0.356244
2.785000 -29.014728 625.738207 -0.000000 0.325799 0.241889 -0.119364 54.594494 39.889220 -0.000000 0.059260 0.374279 -0.350321
2.790000 -4.669763 620.273835 -0.000000 0.321343 0.231820 -0.119198 56.278264 36.852989 -0.000000 0.059114 0.393055 -0.344386
2.795000 9.926133 616.783907 -0.000000 0.316230 0.221911 -0.118905 55.058945 30.826196 -0.000000 0.065665 0.402778 -0.344898
2.800000 22.967914 615.789438 -0.000000 0.310426 0.212550 -0.119368 51.077164 20.816344 -0.000000 0.072730 0.411223 -0.345292
2.805000 39.636284 617.067892 -0.000000 0.304099 0.203731 -0.119150 44.109405 6.301893 -0.000000 0.082677 0.419515 -0.348427
2.810000 59.000616 620.317710 -0.000000 0.297325 0.195006 -0.119058 33.554826 -12.345093 -0.000000 0.094358 0.427349 -0.352799
2.815000 79.316851 625.305691 -0.000000 0.290155 0.186856 -0.118713 19.051021 -34.426557 -0.000000 0.106581 0.435125 -0.357024
2.820000 97.891057 631.982614 -0.000000 0.282450 0.179211 -0.118591 0.824736 -59.137371 -0.000000 0.118234 0.441787 -0.359625
2.825000 113.492841 640.064747 -0.000000 0.274333 0.171948 -0.118456 -20.349783 -85.709509 -0.000000 0.128158 0.448074 -0.359086
2.830000 129.248903 648.161055 -0.000000 0.265666 0.165237 -0.118586 -43.920111 -112.961437 -0.000000 0.137676 0.454727 -0.358770
2.835000 143.899933 655.252798 -0.000000 0.257044 0.159292 -0.118093 -68.571861 -139.388023 -0.000000 0.147525 0.459771 -0.358685
2.840000 159.745869 659.333369 -0.000000 0.247981 0.153816 -0.117905 -93.420802 -162.923981 -0.000000 0.157527 0.464975 -0.358390
2.845000 174.817185 659.233630 -0.000000 0.238821 0.149139 -0.117751 -116.577843 -181.916678 -0.000000 0.167408 0.469744 -0.358312
2.850000 189.103420 653.502659 -0.000000 0.229449 0.145262 -0.117603 -136.588352 -194.831578 -0.000000 0.177279 0.473506 -0.358243
2.855000 202.631598 640.923402 -0.000000 0.219845 0.142017 -0.117463 -152.290892 -200.594217 -0.000000 0.187186 0.476923 -0.358247
2.860000 213.321789 621.294834 -0.000000 0.210586 0.139508 -0.117547 -162.276309 -199.332006 -0.000000 0.196935 0.479792 -0.358298
2.865000 221.319603 594.194895 -0.000000 0.201302 0.137646 -0.117561 -166.364071 -191.446524 -0.000000 0.206442 0.482582 -0.358630
2.870000 226.553732 559.723131 -0.000000 0.192068 0.136118 -0.117694 -164.917158 -177.934738 -0.000000 0.215934 0.484189 -0.359334
2.875000 227.824300 518.858544 -0.000000 0.183028 0.135902 -0.117802 -158.481012 -160.373645 -0.000000 0.224779 0.485397 -0.359857
2.880000 226.028084 471.991063 -0.000000 0.174107 0.136013 -0.117872 -148.655864 -139.662544 -0.000000 0.233456 0.485876 -0.360229
2.885000 220.789958 420.221264 -0.000000 0.165462 0.136750 -0.117951 -136.822455 -116.837496 -0.000000 0.241709 0.485774 -0.360598
2.890000 212.605888 364.452353 -0.000000 0.157160 0.138084 -0.117966 -124.581923 -92.363411 -0.000000 0.249824 0.485105 -0.361024
2.895000 201.587931 306.058033 -0.000000 0.149187 0.140203 -0.118056 -113.194220 -66.603567 -0.000000 0.257553 0.483748 -0.361458
2.900000 187.840087 246.806005 -0.000000 0.141841 0.142789 -0.117967 -103.629628 -39.892171 -0.000000 0.264782 0.481637 -0.362031
2.905000 172.468419 188.006441 -0.000000 0.134543 0.145876 -0.118158 -96.718526 -12.219870 -0.000000 0.271525 0.478427 -0.362574
2.910000 155.879422 131.501935 -0.000000 0.127756 0.149442 -0.118169 -92.819413 16.139827 -0.000000 0.278067 0.474577 -0.363073
2.915000 138.699545 78.929326 -0.000000 0.121407 0.153535 -0.118278 -92.198581 45.008562 -0.000000 0.284019 0.470566 -0.363230
2.920000 121.837856 31.211531 -0.000000 0.115470 0.158047 -0.118326 -95.071276 74.651640 -0.000000 0.289569 0.466053 -0.363438
2.925000 105.864445 -11.058866 -0.000000 0.109856 0.162879 -0.118369 -101.633285 105.595453 -0.000000 0.294685 0.460653 -0.363807
